<?xml version="1.0" encoding="iso-8859-1"?>
<!-- Generator: Adobe Illustrator 19.0.0, SVG Export Plug-In . SVG Version: 6.00 Build 0)  -->
<svg version="1.1" id="Capa_1" xmlns="http://www.w3.org/2000/svg" xmlns:xlink="http://www.w3.org/1999/xlink" x="0px" y="0px"
	 viewBox="0 0 512 512" style="enable-background:new 0 0 512 512;" xml:space="preserve">
<g>
	<g>
		<path fill="#EAEAEA" d="M120.535,350.995c-27.832,0-50.476,22.644-50.476,50.476c0,27.832,22.644,50.476,50.476,50.476
			c27.833,0,50.477-22.644,50.477-50.476C171.012,373.64,148.368,350.995,120.535,350.995z M120.535,421.948
			c-11.29,0-20.475-9.185-20.475-20.475c0-11.29,9.185-20.475,20.475-20.475c11.291,0,20.476,9.185,20.476,20.475
			C141.011,412.762,131.825,421.948,120.535,421.948z"/>
	</g>
</g>
<g>
	<g>
		<rect fill="#EAEAEA" x="235.981" y="311.055" width="105.885" height="30.001"/>
	</g>
</g>
<g>
	<g>
		<rect fill="#EAEAEA" x="235.981" y="371.107" width="105.885" height="30.001"/>
	</g>
</g>
<g>
	<g>
		<path fill="#EAEAEA" d="M451.416,210.974l-49.509,42.437v-62.454h-24.865c21.452-20.166,34.874-48.782,34.874-80.478
			C411.915,49.56,362.354,0,301.436,0c-40.69,0-76.308,22.114-95.478,54.953C186.786,22.114,151.168,0,110.479,0
			C49.56,0,0,49.56,0,110.479c0,31.695,13.422,60.312,34.874,80.478H10.009V512h391.898v-62.454l49.509,42.437H512V210.974H451.416z
			 M301.436,30.001c39.248,0,72.004,28.248,79.055,65.477H222.381C229.432,58.25,262.187,30.001,301.436,30.001z M380.491,125.48
			c-7.05,37.229-39.807,65.477-79.055,65.477c-39.248,0-72.004-28.248-79.055-65.477H380.491z M225.831,190.957h-39.746
			c7.761-7.295,14.471-15.697,19.873-24.951C211.36,175.26,218.069,183.661,225.831,190.957z M110.479,30.001
			c39.248,0,72.004,28.248,79.055,65.477H31.425C38.475,58.25,71.23,30.001,110.479,30.001z M31.425,125.48h158.108
			c-7.05,37.229-39.806,65.477-79.055,65.477S38.475,162.709,31.425,125.48z M371.905,251.008H205.958v30.001h165.948v200.989H40.01
			v-261.04h331.896V251.008z M481.999,461.982h-19.484l-60.608-51.949V292.924l60.608-51.949h19.484V461.982z"/>
	</g>
</g>
<g>
</g>
<g>
</g>
<g>
</g>
<g>
</g>
<g>
</g>
<g>
</g>
<g>
</g>
<g>
</g>
<g>
</g>
<g>
</g>
<g>
</g>
<g>
</g>
<g>
</g>
<g>
</g>
<g>
</g>
</svg>
