<?xml version="1.0" encoding="iso-8859-1"?>
<!-- Generator: Adobe Illustrator 19.0.0, SVG Export Plug-In . SVG Version: 6.00 Build 0)  -->
<svg version="1.1" id="Capa_1" xmlns="http://www.w3.org/2000/svg" xmlns:xlink="http://www.w3.org/1999/xlink" x="0px" y="0px"
	 viewBox="0 0 512 512" style="enable-background:new 0 0 512 512;" xml:space="preserve">
<g>
	<g>
		<path fill="#ffc25c" d="M120.538,381.001c-11.289,0-20.474,9.185-20.474,20.474c0,11.289,9.185,20.474,20.474,20.474
			c11.29,0,20.475-9.185,20.475-20.474C141.013,390.185,131.828,381.001,120.538,381.001z"/>
	</g>
</g>
<g>
	<g>
		<path fill="#ffc25c" d="M451.77,221.338l-49.866,39.215v-69.589h-43.766c23.953-17.338,40.362-44.479,43.292-75.488H0.479
			c2.93,31.009,19.339,58.15,43.292,75.488H0.006V512h401.897v-69.589l49.866,39.215h60.224V221.338H451.77z M200.956,150.273
			c7.657,16.255,19.344,30.251,33.769,40.692h-67.539C181.61,180.523,193.298,166.529,200.956,150.273z M120.539,451.951
			c-27.833,0-50.475-22.644-50.475-50.475c0-27.833,22.643-50.475,50.475-50.475c27.833,0,50.476,22.644,50.476,50.475
			C171.015,429.307,148.371,451.951,120.539,451.951z M341.866,401.113H235.984v-30.001h105.882V401.113z M341.866,341.064H235.984
			v-30.001h105.882V341.064z M371.891,281.015H205.959v-30.001h165.932V281.015z"/>
	</g>
</g>
<g>
	<g>
		<path fill="#ffc25c" d="M296.431,0c-42.152,0-78.601,24.858-95.476,60.679C184.079,24.858,147.629,0,105.478,0C50.691,0,5.533,41.99,0.479,95.476
			H401.43C396.376,41.99,351.218,0,296.431,0z"/>
	</g>
</g>
<g>
</g>
<g>
</g>
<g>
</g>
<g>
</g>
<g>
</g>
<g>
</g>
<g>
</g>
<g>
</g>
<g>
</g>
<g>
</g>
<g>
</g>
<g>
</g>
<g>
</g>
<g>
</g>
<g>
</g>
</svg>
