<svg width="26" height="26" viewBox="0 0 26 26" fill="none" xmlns="http://www.w3.org/2000/svg">
<path d="M22.1924 3.80763C19.737 1.35225 16.4724 0 13 0C9.52758 0 6.26295 1.35225 3.80758 3.80763C1.3522 6.263 0 9.52758 0 13C0 16.4724 1.3522 19.737 3.80758 22.1924C6.26295 24.6477 9.52758 26 13 26C16.4724 26 19.737 24.6477 22.1924 22.1924C24.6478 19.737 26 16.4724 26 13C26 9.52758 24.6478 6.26295 22.1924 3.80763ZM13 24.4615C6.68012 24.4615 1.53847 19.3199 1.53847 13C1.53847 6.68012 6.68012 1.53847 13 1.53847C19.3199 1.53847 24.4615 6.68012 24.4615 13C24.4615 19.3199 19.3199 24.4615 13 24.4615Z" fill="#EAEAEA"/>
<path d="M12.9999 2.55164C12.9715 2.55164 12.9433 2.5525 12.915 2.5527C12.9078 2.5525 12.9008 2.55164 12.8936 2.55164C12.8815 2.55164 12.8698 2.55285 12.8579 2.55341C7.17758 2.62958 2.57741 7.26068 2.55212 12.9529C2.55207 12.9569 2.55151 12.9608 2.55151 12.9647C2.55151 12.9671 2.55187 12.9695 2.55187 12.9718C2.55187 12.9812 2.55151 12.9906 2.55151 12.9999C2.55151 18.7612 7.23857 23.4483 12.9999 23.4483C18.7611 23.4483 23.4483 18.7612 23.4483 13C23.4483 7.23874 18.7612 2.55164 12.9999 2.55164ZM13.7691 21.8763V20.9011C13.7691 20.4763 13.4247 20.1319 12.9999 20.1319C12.5751 20.1319 12.2307 20.4763 12.2307 20.9011V21.8763C7.91843 21.5057 4.47414 18.0509 4.1204 13.7339H4.95707C5.38191 13.7339 5.72631 13.3895 5.72631 12.9647C5.72631 12.5399 5.38191 12.1955 4.95707 12.1955H4.12675C4.50878 7.94689 7.88537 4.54846 12.1244 4.13312V4.92195C12.1244 5.34679 12.4688 5.69119 12.8936 5.69119C13.3185 5.69119 13.6629 5.34679 13.6629 4.92195V4.11473C17.9656 4.43273 21.4282 7.81963 21.8636 12.0892H20.9364C20.5116 12.0892 20.1672 12.4336 20.1672 12.8585C20.1672 13.2833 20.5116 13.6277 20.9364 13.6277H21.8874C21.582 17.9941 18.1167 21.5027 13.7691 21.8763Z" fill="#EAEAEA"/>
<path d="M16.1136 9.88612C15.8133 9.58565 15.3263 9.58565 15.0259 9.88612L12.9998 11.9122L9.07023 7.98264C8.76986 7.68222 8.28282 7.68222 7.9824 7.98264C7.68197 8.28306 7.68197 8.77005 7.9824 9.07048L12.4559 13.5439C12.6001 13.6882 12.7957 13.7693 12.9998 13.7693C13.2038 13.7693 13.3995 13.6882 13.5437 13.5439L16.1136 10.974C16.4141 10.6736 16.4141 10.1865 16.1136 9.88612Z" fill="#EAEAEA"/>
</svg>
