<svg width="26" height="26" viewBox="0 0 26 26" fill="none" xmlns="http://www.w3.org/2000/svg">
<path d="M23.201 0H13.3338C13.1319 0 12.9381 0.0803373 12.7953 0.223159L0.81825 12.1998C-0.27275 13.2912 -0.27275 15.0667 0.81825 16.1577L9.84201 25.1813C10.3689 25.7081 11.0717 25.9983 11.8207 25.9985H11.8209C12.5701 25.9985 13.2729 25.7081 13.8 25.1811L25.7766 13.2043C25.9194 13.0615 25.9997 12.8677 25.9997 12.6657L25.9999 2.79851C25.9997 1.25544 24.7441 0 23.201 0ZM24.4763 12.3503L12.7226 24.104C12.4834 24.3434 12.1631 24.4751 11.8209 24.4751C11.4785 24.4751 11.1584 24.3434 10.9191 24.1042L1.89536 15.0806C1.39827 14.5835 1.39827 13.7742 1.89536 13.2769L13.6492 1.52343H23.201C23.9042 1.52343 24.4765 2.09551 24.4765 2.79871L24.4763 12.3503Z" fill="#EAEAEA"/>
<path d="M19.286 4.32031C18.6467 4.32031 18.0457 4.56946 17.5936 5.02153C17.1415 5.4734 16.8926 6.07445 16.8926 6.71378C16.8926 7.3531 17.1415 7.95415 17.5936 8.40622C18.0457 8.85829 18.6467 9.10724 19.286 9.10724C19.9252 9.10724 20.5262 8.85829 20.9783 8.40622C21.4304 7.95415 21.6793 7.3531 21.6793 6.71378C21.6793 6.07445 21.4304 5.4734 20.9785 5.02153C20.5264 4.56946 19.9254 4.32031 19.286 4.32031ZM19.9012 7.3289C19.7369 7.49335 19.5183 7.5838 19.286 7.5838C19.0536 7.5838 18.8352 7.49335 18.6709 7.3289C18.5065 7.16466 18.416 6.94606 18.416 6.71378C18.416 6.48149 18.5065 6.26289 18.6709 6.09865C18.8352 5.9342 19.0538 5.84375 19.286 5.84375C19.5183 5.84375 19.7367 5.9342 19.9012 6.09865C20.0656 6.26289 20.1561 6.48149 20.1561 6.71378C20.1561 6.94606 20.0654 7.16466 19.9012 7.3289Z" fill="#EAEAEA"/>
</svg>
