<svg width="26" height="26" viewBox="0 0 26 26" fill="none" xmlns="http://www.w3.org/2000/svg">
<path d="M23.7148 3.04688H22.9531V2.28516C22.9531 1.02512 21.928 0 20.668 0C19.4079 0 18.3828 1.02512 18.3828 2.28516V3.04688H15.3359V2.28516C15.3359 1.02512 14.3108 0 13.0508 0C11.7907 0 10.7656 1.02512 10.7656 2.28516V3.04688H7.61719V2.28516C7.61719 1.02512 6.59207 0 5.33203 0C4.072 0 3.04688 1.02512 3.04688 2.28516V3.04688H2.28516C1.02512 3.04688 0 4.072 0 5.33203C0 5.44253 0 23.4228 0 23.7148C0 24.9749 1.02512 26 2.28516 26H23.7148C24.9749 26 26 24.9749 26 23.7148C26 23.5745 26 5.57954 26 5.33203C26 4.072 24.9749 3.04688 23.7148 3.04688ZM19.9062 2.28516C19.9062 1.86514 20.248 1.52344 20.668 1.52344C21.088 1.52344 21.4297 1.86514 21.4297 2.28516V5.33203C21.4297 5.75204 21.088 6.09375 20.668 6.09375C20.248 6.09375 19.9062 5.75204 19.9062 5.33203V2.28516ZM12.2891 2.28516C12.2891 1.86514 12.6308 1.52344 13.0508 1.52344C13.4708 1.52344 13.8125 1.86514 13.8125 2.28516V5.33203C13.8125 5.75204 13.4708 6.09375 13.0508 6.09375C12.6308 6.09375 12.2891 5.75204 12.2891 5.33203V2.28516ZM4.57031 2.28516C4.57031 1.86514 4.91202 1.52344 5.33203 1.52344C5.75204 1.52344 6.09375 1.86514 6.09375 2.28516V5.33203C6.09375 5.75204 5.75204 6.09375 5.33203 6.09375C4.91202 6.09375 4.57031 5.75204 4.57031 5.33203V2.28516ZM24.4766 23.7148C24.4766 24.1349 24.1349 24.4766 23.7148 24.4766H2.28516C1.86514 24.4766 1.52344 24.1349 1.52344 23.7148V10.7656H24.4766V23.7148ZM24.4766 9.24219H1.52344V5.33203C1.52344 4.91202 1.86514 4.57031 2.28516 4.57031H3.04688V5.33203C3.04688 6.59207 4.072 7.61719 5.33203 7.61719C6.59207 7.61719 7.61719 6.59207 7.61719 5.33203V4.57031H10.7656V5.33203C10.7656 6.59207 11.7907 7.61719 13.0508 7.61719C14.3108 7.61719 15.3359 6.59207 15.3359 5.33203V4.57031H18.3828V5.33203C18.3828 6.59207 19.4079 7.61719 20.668 7.61719C21.928 7.61719 22.9531 6.59207 22.9531 5.33203V4.57031H23.7148C24.1349 4.57031 24.4766 4.91202 24.4766 5.33203V9.24219Z" fill="#EAEAEA"/>
<path d="M22.1914 12.2891H3.80859C3.38792 12.2891 3.04688 12.6301 3.04688 13.0508V22.1914C3.04688 22.6121 3.38792 22.9531 3.80859 22.9531H22.1914C22.6121 22.9531 22.9531 22.6121 22.9531 22.1914V13.0508C22.9531 12.6301 22.6121 12.2891 22.1914 12.2891ZM7.61719 21.4297H4.57031V18.3828H7.61719V21.4297ZM7.61719 16.8594H4.57031V13.8125H7.61719V16.8594ZM12.2891 21.4297H9.14062V18.3828H12.2891V21.4297ZM12.2891 16.8594H9.14062V13.8125H12.2891V16.8594ZM16.8594 21.4297H13.8125V18.3828H16.8594V21.4297ZM16.8594 16.8594H13.8125V13.8125H16.8594V16.8594ZM21.4297 21.4297H18.3828V18.3828H21.4297V21.4297ZM21.4297 16.8594H18.3828V13.8125H21.4297V16.8594Z" fill="#EAEAEA"/>
</svg>
