<svg height="512pt" viewBox="0 0 511 512" width="512pt" xmlns="http://www.w3.org/2000/svg"><path fill="#EAEAEA" d="m139.074219 461.792969v-87.695313h-88.367188v87.695313zm-58.242188-57.574219h28.117188v27.449219h-28.117188zm0 0"/><path fill="#EAEAEA" d="m462.410156 374.097656h-88.367187v87.695313h88.367187zm-30.125 57.570313h-28.117187v-27.445313h28.117187zm0 0"/><path fill="#EAEAEA" d="m46.757812 102.019531h29.324219v30.125h-29.324219zm0 0"/><path fill="#EAEAEA" d="m46.757812 162.5h29.324219v30.125h-29.324219zm0 0"/><path fill="#EAEAEA" d="m102.320312 102.019531h29.324219v30.125h-29.324219zm0 0"/><path fill="#EAEAEA" d="m102.320312 162.5h29.324219v30.125h-29.324219zm0 0"/><path fill="#EAEAEA" d="m157.882812 102.019531h29.324219v30.125h-29.324219zm0 0"/><path fill="#EAEAEA" d="m157.882812 162.5h29.324219v30.125h-29.324219zm0 0"/><path fill="#EAEAEA" d="m324.570312 102.019531h29.324219v30.125h-29.324219zm0 0"/><path fill="#EAEAEA" d="m324.570312 162.5h29.324219v30.125h-29.324219zm0 0"/><path fill="#EAEAEA" d="m380.132812 102.019531h29.324219v30.125h-29.324219zm0 0"/><path fill="#EAEAEA" d="m380.132812 162.5h29.324219v30.125h-29.324219zm0 0"/><path fill="#EAEAEA" d="m213.445312 162.5h29.324219v30.125h-29.324219zm0 0"/><path fill="#EAEAEA" d="m269.007812 162.5h29.324219v30.125h-29.324219zm0 0"/><path fill="#EAEAEA" d="m435.699219 102.019531h29.324219v30.125h-29.324219zm0 0"/><path fill="#EAEAEA" d="m435.699219 162.5h29.324219v30.125h-29.324219zm0 0"/><path fill="#EAEAEA" d="m350.050781 59.238281c-17.21875-35.828125-53.808593-59.238281-94.160156-59.238281-40.355469 0-76.945313 23.410156-94.160156 59.238281h-161.230469v452.761719h510.777344v-452.761719zm-161.773437 422.636719v-78.324219h52.550781v78.324219zm82.675781 0v-78.324219h52.546875v78.324219zm210.203125 0h-127.527344v-108.449219h-195.476562v108.449219h-127.527344v-131.878906h450.53125zm0-162.003906h-450.53125v-18.074219h450.53125zm0-48.199219h-450.53125v-36.265625h450.53125zm-450.53125-66.390625v-115.917969h151.71875l3.574219-9.984375c10.546875-29.460937 38.667969-49.253906 69.972656-49.253906s59.421875 19.792969 69.96875 49.253906l3.578125 9.984375h151.714844v115.917969zm0 0"/><path fill="#EAEAEA" d="m255.890625 56.953125c-24.179687 0-43.851563 19.667969-43.851563 43.847656 0 24.175781 19.671876 43.847657 43.851563 43.847657 24.175781 0 43.847656-19.671876 43.847656-43.847657 0-24.179687-19.671875-43.847656-43.847656-43.847656zm0 57.570313c-7.570313 0-13.726563-6.15625-13.726563-13.726563 0-7.566406 6.15625-13.722656 13.726563-13.722656 7.566406 0 13.722656 6.15625 13.722656 13.722656 0 7.570313-6.15625 13.726563-13.722656 13.726563zm0 0"/></svg>