<svg height="512pt" viewBox="0 0 511 512" width="512pt" xmlns="http://www.w3.org/2000/svg"><path fill="#ffc25c" d="m80.832031 404.21875h28.117188v27.449219h-28.117188zm0 0"/><path fill="#ffc25c" d="m404.167969 404.21875h28.117187v27.449219h-28.117187zm0 0"/><path fill="#ffc25c" d="m188.277344 403.550781h52.550781v108.449219h-52.550781zm0 0"/><path fill="#ffc25c" d="m.5 351.699219v160.300781h157.652344v-138.574219h195.476562v138.574219h157.648438v-160.300781zm50.207031 22.398437h88.367188v87.695313h-88.367188zm323.335938 0h88.367187v87.695313h-88.367187zm0 0"/><path fill="#ffc25c" d="m270.953125 403.550781h52.546875v108.449219h-52.546875zm0 0"/><path fill="#ffc25c" d="m30.625 235.40625h450.53125v28.78125h30.121094v-204.949219h-161.226563c-17.21875-35.828125-53.808593-59.238281-94.160156-59.238281-40.355469 0-76.945313 23.410156-94.160156 59.238281h-161.230469v204.949219h30.125zm182.820312-42.78125v-30.125h29.324219v30.125zm55.5625 0v-30.125h29.324219v30.125zm166.691407-90.605469h29.324219v30.125h-29.324219zm0 60.480469h29.324219v30.125h-29.324219zm-55.566407-60.480469h29.324219v30.125h-29.324219zm0 60.480469h29.324219v30.125h-29.324219zm-55.5625-60.480469h29.324219v30.125h-29.324219zm0 60.480469h29.324219v30.125h-29.324219zm-68.679687-119.609375c24.175781 0 43.847656 19.671875 43.847656 43.851563 0 24.175781-19.671875 43.847656-43.847656 43.847656-24.179687 0-43.851563-19.671875-43.851563-43.847656 0-24.179688 19.671876-43.851563 43.851563-43.851563zm-98.007813 59.128906h29.324219v30.125h-29.324219zm0 60.480469h29.324219v30.125h-29.324219zm-55.5625-60.480469h29.324219v30.125h-29.324219zm0 60.480469h29.324219v30.125h-29.324219zm-55.5625-60.480469h29.324219v30.125h-29.324219zm0 60.480469h29.324219v30.125h-29.324219zm0 0"/><path fill="#ffc25c" d="m511.277344 294.3125h-510.777344v27.261719h510.777344zm0 0"/><path fill="#ffc25c" d="m255.890625 100.464844c7.566406 0 13.722656-6.15625 13.722656-13.726563 0-7.566406-6.15625-13.722656-13.722656-13.722656-7.570313 0-13.726563 6.15625-13.726563 13.722656 0 7.570313 6.160157 13.726563 13.726563 13.726563zm0 0"/></svg>