<svg width="165" height="48" viewBox="0 0 208 60" fill="none" xmlns="http://www.w3.org/2000/svg">
<path d="M46.191 54.7444C51.4431 54.7444 55 51.1894 55 45.9169V8.8275C55 3.56438 51.4431 0 46.191 0H8.80898C3.5569 0 0 3.56438 0 8.8275V60L4.51114 54.7462V8.8275C4.5151 7.68733 4.96947 6.59513 5.77488 5.78978C6.5803 4.98443 7.6712 4.53148 8.80898 4.53H46.1817C46.7448 4.53 47.3025 4.64116 47.8228 4.85713C48.3431 5.0731 48.8159 5.38965 49.2141 5.78871C49.6123 6.18777 49.9282 6.66152 50.1437 7.18292C50.3592 7.70431 50.4701 8.26314 50.4701 8.8275V45.9169C50.4701 46.4812 50.3592 47.0401 50.1437 47.5615C49.9282 48.0829 49.6123 48.5566 49.2141 48.9557C48.8159 49.3547 48.3431 49.6713 47.8228 49.8872C47.3025 50.1032 46.7448 50.2144 46.1817 50.2144H14.8319L10.3096 54.7462L10.2796 54.7163L46.191 54.7444ZM19.4797 28.6594H15.2511V42.9075H19.4797C28.9417 42.9075 28.9417 28.6594 19.4797 28.6594V28.6594ZM19.4797 40.0575H18.1063V31.5131H19.4797C25.0143 31.5131 25.0143 40.0575 19.4797 40.0575V40.0575ZM18.6601 25.9744H21.4967V14.5687H25.0349V11.7469H15.1145V14.5687H18.662L18.6601 25.9744ZM32.6445 17.9962L27.7329 11.7469H26.8161V26.2106H29.7013V18.2606L32.6445 22.0894L35.597 18.2606L35.5783 26.2106H38.4635V11.7469H37.5673L32.6445 17.9962ZM37.44 35.79C38.3269 35.1656 38.7068 34.0613 38.746 32.9775C38.804 30.4669 37.2361 28.6519 34.712 28.6519H29.0895V42.9188H34.712C35.8279 42.9089 36.8948 42.4584 37.6813 41.665C38.4677 40.8717 38.9102 39.7995 38.9126 38.6813V38.6137C38.9143 38.0614 38.7822 37.517 38.5277 37.0271C38.2732 36.5372 37.9038 36.1165 37.4513 35.8012L37.44 35.79ZM31.9335 31.5019H34.4669C35.2752 31.5019 35.7729 32.1375 35.7729 32.9381C35.7876 33.1192 35.7648 33.3014 35.7059 33.4732C35.647 33.645 35.5533 33.8028 35.4307 33.9366C35.308 34.0704 35.1591 34.1774 34.9933 34.2508C34.8274 34.3242 34.6482 34.3624 34.4669 34.3631H31.9335V31.5019ZM34.4669 40.0669H31.9335V37.2244H34.4969C35.2659 37.2244 35.8908 37.8488 35.8908 38.6213V38.6513C35.892 38.8367 35.8566 39.0206 35.7867 39.1923C35.7167 39.364 35.6135 39.5201 35.4831 39.6517C35.3527 39.7833 35.1976 39.8877 35.0267 39.9589C34.8558 40.0302 34.6726 40.0669 34.4875 40.0669H34.4669Z" fill="#FFC25C"/>
<path d="M72.957 33H68.416V15.3633H62.6006V11.584H78.7725V15.3633H72.957V33ZM96.834 33H92.3662V23.4346C92.3662 21.0713 91.4873 19.8896 89.7295 19.8896C88.4795 19.8896 87.5762 20.3145 87.0195 21.1641C86.4629 22.0137 86.1846 23.3906 86.1846 25.2949V33H81.7168V10.207H86.1846V14.8506C86.1846 15.2119 86.1504 16.0615 86.082 17.3994L85.9795 18.7178H86.2139C87.21 17.1162 88.792 16.3154 90.96 16.3154C92.8838 16.3154 94.3438 16.833 95.3398 17.8682C96.3359 18.9033 96.834 20.3877 96.834 22.3213V33ZM108.216 19.4941C107.269 19.4941 106.526 19.7969 105.989 20.4023C105.452 20.998 105.145 21.8477 105.066 22.9512H111.336C111.316 21.8477 111.028 20.998 110.472 20.4023C109.915 19.7969 109.163 19.4941 108.216 19.4941ZM108.846 33.293C106.209 33.293 104.148 32.5654 102.664 31.1104C101.18 29.6553 100.438 27.5947 100.438 24.9287C100.438 22.1846 101.121 20.0654 102.488 18.5713C103.865 17.0674 105.765 16.3154 108.187 16.3154C110.501 16.3154 112.303 16.9746 113.592 18.293C114.881 19.6113 115.525 21.4326 115.525 23.7568V25.9248H104.964C105.013 27.1943 105.389 28.1855 106.092 28.8984C106.795 29.6113 107.781 29.9678 109.051 29.9678C110.037 29.9678 110.97 29.8652 111.849 29.6602C112.728 29.4551 113.646 29.1279 114.603 28.6787V32.1357C113.821 32.5264 112.986 32.8145 112.098 33C111.209 33.1953 110.125 33.293 108.846 33.293Z" fill="#FFC25C"/>
<path d="M77.6426 46.7246C77.6426 49.0749 76.972 50.875 75.6309 52.125C74.2962 53.375 72.3659 54 69.8398 54H65.7969V39.7227H70.2793C72.61 39.7227 74.4199 40.3379 75.709 41.5684C76.998 42.7988 77.6426 44.5176 77.6426 46.7246ZM74.498 46.8027C74.498 43.7363 73.1439 42.2031 70.4355 42.2031H68.8242V51.5H70.123C73.0397 51.5 74.498 49.9342 74.498 46.8027ZM87.3008 54L86.7246 52.5156H86.6465C86.1452 53.1471 85.6276 53.5866 85.0938 53.834C84.5664 54.0749 83.8763 54.1953 83.0234 54.1953C81.9753 54.1953 81.1484 53.8958 80.543 53.2969C79.944 52.6979 79.6445 51.8451 79.6445 50.7383C79.6445 49.5794 80.0482 48.7266 80.8555 48.1797C81.6693 47.6263 82.8932 47.3203 84.5273 47.2617L86.4219 47.2031V46.7246C86.4219 45.6178 85.8555 45.0645 84.7227 45.0645C83.8503 45.0645 82.8249 45.3281 81.6465 45.8555L80.6602 43.8438C81.9167 43.1862 83.3099 42.8574 84.8398 42.8574C86.3047 42.8574 87.4277 43.1764 88.209 43.8145C88.9902 44.4525 89.3809 45.4225 89.3809 46.7246V54H87.3008ZM86.4219 48.9414L85.2695 48.9805C84.4036 49.0065 83.7591 49.1628 83.3359 49.4492C82.9128 49.7357 82.7012 50.1719 82.7012 50.7578C82.7012 51.5977 83.1829 52.0176 84.1465 52.0176C84.8366 52.0176 85.3867 51.819 85.7969 51.4219C86.2135 51.0247 86.4219 50.4974 86.4219 49.8398V48.9414ZM97.0566 51.8223C97.5775 51.8223 98.2025 51.7083 98.9316 51.4805V53.6973C98.1895 54.0293 97.278 54.1953 96.1973 54.1953C95.0059 54.1953 94.1367 53.8958 93.5898 53.2969C93.0495 52.6914 92.7793 51.7865 92.7793 50.582V45.3184H91.3535V44.0586L92.9941 43.0625L93.8535 40.7578H95.7578V43.082H98.8145V45.3184H95.7578V50.582C95.7578 51.0052 95.875 51.3177 96.1094 51.5195C96.3503 51.7214 96.666 51.8223 97.0566 51.8223ZM108.082 54L107.506 52.5156H107.428C106.926 53.1471 106.409 53.5866 105.875 53.834C105.348 54.0749 104.658 54.1953 103.805 54.1953C102.757 54.1953 101.93 53.8958 101.324 53.2969C100.725 52.6979 100.426 51.8451 100.426 50.7383C100.426 49.5794 100.829 48.7266 101.637 48.1797C102.451 47.6263 103.674 47.3203 105.309 47.2617L107.203 47.2031V46.7246C107.203 45.6178 106.637 45.0645 105.504 45.0645C104.632 45.0645 103.606 45.3281 102.428 45.8555L101.441 43.8438C102.698 43.1862 104.091 42.8574 105.621 42.8574C107.086 42.8574 108.209 43.1764 108.99 43.8145C109.771 44.4525 110.162 45.4225 110.162 46.7246V54H108.082ZM107.203 48.9414L106.051 48.9805C105.185 49.0065 104.54 49.1628 104.117 49.4492C103.694 49.7357 103.482 50.1719 103.482 50.7578C103.482 51.5977 103.964 52.0176 104.928 52.0176C105.618 52.0176 106.168 51.819 106.578 51.4219C106.995 51.0247 107.203 50.4974 107.203 49.8398V48.9414Z" fill="#FFC25C"/>
<path d="M118.797 39.7227H123.24C125.265 39.7227 126.733 40.0124 127.645 40.5918C128.562 41.1647 129.021 42.0794 129.021 43.3359C129.021 44.1888 128.82 44.8887 128.416 45.4355C128.019 45.9824 127.488 46.3112 126.824 46.4219V46.5195C127.729 46.7214 128.38 47.099 128.777 47.6523C129.181 48.2057 129.383 48.9414 129.383 49.8594C129.383 51.1615 128.911 52.1771 127.967 52.9062C127.029 53.6354 125.753 54 124.139 54H118.797V39.7227ZM121.824 45.377H123.582C124.402 45.377 124.995 45.25 125.359 44.9961C125.73 44.7422 125.916 44.3223 125.916 43.7363C125.916 43.1895 125.714 42.7988 125.311 42.5645C124.913 42.3236 124.282 42.2031 123.416 42.2031H121.824V45.377ZM121.824 47.7793V51.5H123.797C124.63 51.5 125.245 51.3405 125.643 51.0215C126.04 50.7025 126.238 50.2142 126.238 49.5566C126.238 48.3717 125.392 47.7793 123.699 47.7793H121.824ZM138.934 54L138.357 52.5156H138.279C137.778 53.1471 137.26 53.5866 136.727 53.834C136.199 54.0749 135.509 54.1953 134.656 54.1953C133.608 54.1953 132.781 53.8958 132.176 53.2969C131.577 52.6979 131.277 51.8451 131.277 50.7383C131.277 49.5794 131.681 48.7266 132.488 48.1797C133.302 47.6263 134.526 47.3203 136.16 47.2617L138.055 47.2031V46.7246C138.055 45.6178 137.488 45.0645 136.355 45.0645C135.483 45.0645 134.458 45.3281 133.279 45.8555L132.293 43.8438C133.549 43.1862 134.943 42.8574 136.473 42.8574C137.938 42.8574 139.061 43.1764 139.842 43.8145C140.623 44.4525 141.014 45.4225 141.014 46.7246V54H138.934ZM138.055 48.9414L136.902 48.9805C136.036 49.0065 135.392 49.1628 134.969 49.4492C134.546 49.7357 134.334 50.1719 134.334 50.7578C134.334 51.5977 134.816 52.0176 135.779 52.0176C136.469 52.0176 137.02 51.819 137.43 51.4219C137.846 51.0247 138.055 50.4974 138.055 49.8398V48.9414ZM151.707 50.7578C151.707 51.8776 151.316 52.7305 150.535 53.3164C149.76 53.9023 148.598 54.1953 147.049 54.1953C146.255 54.1953 145.577 54.14 145.018 54.0293C144.458 53.9251 143.934 53.7689 143.445 53.5605V51.0996C143.999 51.36 144.62 51.5781 145.311 51.7539C146.007 51.9297 146.619 52.0176 147.146 52.0176C148.227 52.0176 148.768 51.7051 148.768 51.0801C148.768 50.8457 148.696 50.6569 148.553 50.5137C148.41 50.3639 148.162 50.1979 147.811 50.0156C147.459 49.8268 146.99 49.6087 146.404 49.3613C145.564 49.0098 144.946 48.6842 144.549 48.3848C144.158 48.0853 143.872 47.7435 143.689 47.3594C143.514 46.9688 143.426 46.4902 143.426 45.9238C143.426 44.9538 143.8 44.2051 144.549 43.6777C145.304 43.1439 146.372 42.877 147.752 42.877C149.067 42.877 150.346 43.1634 151.59 43.7363L150.691 45.8848C150.145 45.6504 149.633 45.4583 149.158 45.3086C148.683 45.1589 148.198 45.084 147.703 45.084C146.824 45.084 146.385 45.3216 146.385 45.7969C146.385 46.0638 146.525 46.2949 146.805 46.4902C147.091 46.6855 147.713 46.9753 148.67 47.3594C149.523 47.7044 150.148 48.0267 150.545 48.3262C150.942 48.6257 151.235 48.9707 151.424 49.3613C151.613 49.752 151.707 50.2174 151.707 50.7578ZM158.553 44.9961C157.921 44.9961 157.426 45.1979 157.068 45.6016C156.71 45.9987 156.505 46.5651 156.453 47.3008H160.633C160.62 46.5651 160.428 45.9987 160.057 45.6016C159.686 45.1979 159.184 44.9961 158.553 44.9961ZM158.973 54.1953C157.215 54.1953 155.841 53.7103 154.852 52.7402C153.862 51.7702 153.367 50.3965 153.367 48.6191C153.367 46.7897 153.823 45.377 154.734 44.3809C155.652 43.3783 156.919 42.877 158.533 42.877C160.076 42.877 161.277 43.3164 162.137 44.1953C162.996 45.0742 163.426 46.2884 163.426 47.8379V49.2832H156.385C156.417 50.1296 156.668 50.7904 157.137 51.2656C157.605 51.7409 158.263 51.9785 159.109 51.9785C159.767 51.9785 160.389 51.9102 160.975 51.7734C161.561 51.6367 162.173 51.4186 162.811 51.1191V53.4238C162.29 53.6842 161.733 53.8763 161.141 54C160.548 54.1302 159.826 54.1953 158.973 54.1953Z" fill="#FFC25C"/>
<path d="M128.763 33L123.606 16.1982H123.475C123.66 19.6162 123.753 21.8965 123.753 23.0391V33H119.695V11.584H125.877L130.945 27.9609H131.033L136.409 11.584H142.591V33H138.357V22.8633C138.357 22.3848 138.362 21.833 138.372 21.208C138.392 20.583 138.46 18.9229 138.577 16.2275H138.445L132.923 33H128.763ZM151.204 24.7822C151.204 26.4033 151.468 27.6289 151.995 28.459C152.532 29.2891 153.401 29.7041 154.603 29.7041C155.794 29.7041 156.648 29.2939 157.166 28.4736C157.693 27.6436 157.957 26.4131 157.957 24.7822C157.957 23.1611 157.693 21.9453 157.166 21.1348C156.639 20.3242 155.774 19.9189 154.573 19.9189C153.382 19.9189 152.522 20.3242 151.995 21.1348C151.468 21.9355 151.204 23.1514 151.204 24.7822ZM162.527 24.7822C162.527 27.4482 161.824 29.5332 160.418 31.0371C159.012 32.541 157.054 33.293 154.544 33.293C152.972 33.293 151.585 32.9512 150.384 32.2676C149.183 31.5742 148.26 30.583 147.615 29.2939C146.971 28.0049 146.648 26.501 146.648 24.7822C146.648 22.1064 147.347 20.0264 148.743 18.542C150.14 17.0576 152.103 16.3154 154.632 16.3154C156.204 16.3154 157.591 16.6572 158.792 17.3408C159.993 18.0244 160.916 19.0059 161.561 20.2852C162.205 21.5645 162.527 23.0635 162.527 24.7822ZM170.115 33L163.875 16.623H168.548L171.712 25.9541C172.063 27.1357 172.283 28.2539 172.371 29.3086H172.459C172.508 28.3711 172.728 27.2529 173.118 25.9541L176.268 16.623H180.94L174.7 33H170.115ZM183.108 12.3896C183.108 10.9346 183.919 10.207 185.54 10.207C187.161 10.207 187.972 10.9346 187.972 12.3896C187.972 13.083 187.767 13.625 187.356 14.0156C186.956 14.3965 186.351 14.5869 185.54 14.5869C183.919 14.5869 183.108 13.8545 183.108 12.3896ZM187.767 33H183.299V16.623H187.767V33ZM199.251 19.4941C198.304 19.4941 197.562 19.7969 197.024 20.4023C196.487 20.998 196.18 21.8477 196.102 22.9512H202.371C202.352 21.8477 202.063 20.998 201.507 20.4023C200.95 19.7969 200.198 19.4941 199.251 19.4941ZM199.881 33.293C197.244 33.293 195.184 32.5654 193.699 31.1104C192.215 29.6553 191.473 27.5947 191.473 24.9287C191.473 22.1846 192.156 20.0654 193.523 18.5713C194.9 17.0674 196.8 16.3154 199.222 16.3154C201.536 16.3154 203.338 16.9746 204.627 18.293C205.916 19.6113 206.561 21.4326 206.561 23.7568V25.9248H195.999C196.048 27.1943 196.424 28.1855 197.127 28.8984C197.83 29.6113 198.816 29.9678 200.086 29.9678C201.072 29.9678 202.005 29.8652 202.884 29.6602C203.763 29.4551 204.681 29.1279 205.638 28.6787V32.1357C204.856 32.5264 204.021 32.8145 203.133 33C202.244 33.1953 201.16 33.293 199.881 33.293Z" fill="#FFC25C"/>
</svg>
