<svg height="512pt" viewBox="0 0 512 512" width="512pt" xmlns="http://www.w3.org/2000/svg"><path fill="#ffc25c" d="m458.230469 458.230469c-2.046875 2.050781-4.132813 4.054687-6.230469 6.03125v47.738281h60v-128.175781c-13.605469 27.179687-31.648438 52.289062-53.769531 74.40625zm0 0"/><path fill="#ffc25c" d="m332.332031 183.882812 41.574219-13.507812c4.910156-1.597656 8.507812-5.371094 9.871094-10.359375 1.347656-4.921875.195312-9.925781-3.160156-13.730469-8.027344-9.105468-17.128907-17.375-27.046876-24.582031-9.914062-7.203125-20.59375-13.300781-31.734374-18.125-4.652344-2.015625-9.769532-1.5625-14.035157 1.238281-4.320312 2.835938-6.800781 7.425782-6.800781 12.585938v43.71875c5.851562 2.78125 11.445312 6.101562 16.71875 9.933594 5.269531 3.832031 10.160156 8.125 14.613281 12.828124zm0 0"/><path fill="#ffc25c" d="m256 271c8.269531 0 15-6.730469 15-15s-6.730469-15-15-15-15 6.730469-15 15 6.730469 15 15 15zm0 0"/><path fill="#ffc25c" d="m415.792969 258.546875c-4.035157-3.230469-9.164063-4.171875-14.074219-2.578125l-41.574219 13.507812c-.835937 6.425782-2.269531 12.773438-4.285156 18.972657-2.011719 6.199219-4.585937 12.171875-7.683594 17.859375l25.695313 35.371094c3.03125 4.171874 7.710937 6.421874 12.902344 6.183593 5.09375-.242187 9.5-2.882812 12.078124-7.246093 6.179688-10.453126 11.234376-21.664063 15.023438-33.320313 3.785156-11.65625 6.289062-23.695313 7.429688-35.785156.480468-5.050781-1.53125-9.773438-5.511719-12.964844zm0 0"/><path fill="#ffc25c" d="m151.855469 269.476562-41.574219-13.507812c-1.566406-.507812-3.160156-.761719-4.730469-.761719-3.34375 0-6.597656 1.140625-9.347656 3.339844-3.980469 3.191406-5.988281 7.914063-5.511719 12.964844 1.144532 12.085937 3.644532 24.128906 7.429688 35.785156 3.789062 11.65625 8.84375 22.867187 15.023437 33.320313 2.582031 4.363281 6.984375 7.003906 12.078125 7.246093 5.183594.242188 9.871094-2.011719 12.90625-6.1875l25.695313-35.367187c-3.101563-5.6875-5.671875-11.664063-7.6875-17.863282-2.011719-6.195312-3.445313-12.542968-4.28125-18.96875zm0 0"/><path fill="#ffc25c" d="m138.09375 170.375 41.574219 13.507812c4.453125-4.703124 9.34375-8.996093 14.613281-12.828124 5.273438-3.832032 10.867188-7.15625 16.71875-9.9375v-43.714844c0-5.160156-2.480469-9.75-6.800781-12.589844-2.507813-1.644531-5.304688-2.476562-8.132813-2.476562-1.984375 0-3.980468.410156-5.902344 1.238281-11.144531 4.824219-21.820312 10.921875-31.734374 18.128906-9.917969 7.203125-19.019532 15.476563-27.046876 24.582031-3.355468 3.804688-4.507812 8.808594-3.160156 13.726563 1.363282 4.992187 4.960938 8.765625 9.871094 10.363281zm0 0"/><path fill="#ffc25c" d="m275.363281 359.210938c-12.730469 2.378906-25.996093 2.378906-38.726562 0l-25.699219 35.367187c-3.03125 4.175781-3.722656 9.34375-1.894531 14.183594 1.804687 4.769531 5.675781 8.144531 10.625 9.25 23.699219 5.292969 48.964843 5.292969 72.660156 0 4.949219-1.105469 8.824219-4.480469 10.625-9.25 1.828125-4.835938 1.140625-10.007813-1.894531-14.183594zm0 0"/><path fill="#ffc25c" d="m512 256c0-141.386719-114.613281-256-256-256s-256 114.613281-256 256 114.613281 256 256 256 256-114.613281 256-256zm-241-138.597656c0-15.21875 7.601562-29.300782 20.332031-37.664063 12.675781-8.324219 28.53125-9.703125 42.417969-3.691406 13.160156 5.695313 25.761719 12.890625 37.457031 21.386719 11.691407 8.496094 22.433594 18.257812 31.914063 29.011718 10.007812 11.351563 13.59375 26.859376 9.59375 41.484376-4.019532 14.691406-15.058594 26.273437-29.535156 30.976562l-61.183594 19.878906-6.449219-8.414062c-4.386719-5.71875-9.589844-10.78125-15.464844-15.046875-5.871093-4.265625-12.292969-7.648438-19.085937-10.054688l-9.996094-3.539062zm30 138.597656c0 24.8125-20.1875 45-45 45s-45-20.1875-45-45 20.1875-45 45-45 45 20.1875 45 45zm-192.121094-129.554688c9.480469-10.753906 20.222656-20.515624 31.917969-29.011718 11.691406-8.496094 24.292969-15.691406 37.449219-21.390625 13.890625-6.011719 29.746094-4.628907 42.421875 3.695312 12.730469 8.363281 20.332031 22.445313 20.332031 37.664063v64.328125l-9.996094 3.539062c-6.792968 2.40625-13.214844 5.789063-19.085937 10.054688-5.875 4.265625-11.078125 9.328125-15.464844 15.046875l-6.449219 8.414062-61.183594-19.878906c-14.476562-4.703125-25.519531-16.285156-29.535156-30.976562-4-14.625-.414062-30.132813 9.59375-41.484376zm17.085938 251.4375c-.714844 0-1.433594-.019531-2.152344-.054687-15.148438-.714844-28.785156-8.917969-36.488281-21.941406-7.296875-12.34375-13.265625-25.570313-17.730469-39.320313-4.464844-13.746094-7.414062-27.953125-8.765625-42.230468-1.425781-15.0625 4.785156-29.71875 16.621094-39.199219 11.886719-9.523438 27.625-12.402344 42.101562-7.699219l61.183594 19.878906.273437 10.597656c.1875 7.207032 1.421876 14.359376 3.664063 21.261719 2.242187 6.90625 5.449219 13.417969 9.53125 19.355469l6.007813 8.738281-37.8125 52.042969c-8.523438 11.730469-22.019532 18.570312-36.433594 18.570312zm205.054687 41.484376c-5.359375 14.183593-17.378906 24.621093-32.144531 27.917968-13.992188 3.128906-28.417969 4.714844-42.875 4.714844s-28.882812-1.585938-42.875-4.714844c-14.765625-3.296875-26.78125-13.734375-32.144531-27.917968-5.382813-14.25-3.257813-30.109376 5.6875-42.421876l37.8125-52.042968 10.167969 3.011718c13.816406 4.097657 28.886718 4.097657 42.703124 0l10.167969-3.011718 37.8125 52.042968c8.945313 12.3125 11.070313 28.171876 5.6875 42.421876zm120.15625-145.03125c-1.351562 14.277343-4.300781 28.484374-8.769531 42.230468-4.464844 13.746094-10.433594 26.976563-17.730469 39.320313-7.699219 13.023437-21.339843 21.226562-36.488281 21.941406-.71875.035156-1.4375.054687-2.152344.054687-14.414062 0-27.910156-6.839843-36.433594-18.570312l-37.8125-52.046875 6.007813-8.734375c4.082031-5.9375 7.289063-12.453125 9.53125-19.355469 2.242187-6.902343 3.476563-14.054687 3.664063-21.261719l.277343-10.601562 61.179688-19.875c14.476562-4.707031 30.214843-1.828125 42.101562 7.699219 11.835938 9.480469 18.046875 24.132812 16.625 39.199219zm0 0"/></svg>