<svg height="512pt" viewBox="0 0 512 512" width="512pt" xmlns="http://www.w3.org/2000/svg"><path fill="#EAEAEA" d="m437.019531 74.980469c-48.351562-48.351563-112.640625-74.980469-181.019531-74.980469s-132.667969 26.628906-181.019531 74.980469c-48.351563 48.351562-74.980469 112.640625-74.980469 181.019531s26.628906 132.667969 74.980469 181.019531c48.351562 48.351563 112.640625 74.980469 181.019531 74.980469 55.046875 0 107.433594-17.269531 151-49.222656v49.222656h105v-256c0-68.378906-26.628906-132.667969-74.980469-181.019531zm-407.019531 181.019531c0-124.617188 101.382812-226 226-226s226 101.382812 226 226-101.382812 226-226 226-226-101.382812-226-226zm452 226h-45v-44.960938c18.15625-18.15625 33.234375-38.53125 45-60.527343zm0 0"/><path fill="#EAEAEA" d="m211 256c0 24.8125 20.1875 45 45 45s45-20.1875 45-45-20.1875-45-45-45-45 20.1875-45 45zm45-15c8.269531 0 15 6.730469 15 15s-6.730469 15-15 15-15-6.730469-15-15 6.730469-15 15-15zm0 0"/><path fill="#EAEAEA" d="m287.519531 324.902344-10.167969 3.011718c-13.816406 4.097657-28.886718 4.097657-42.703124 0l-10.167969-3.011718-37.8125 52.042968c-8.945313 12.3125-11.070313 28.171876-5.6875 42.421876 5.359375 14.183593 17.378906 24.621093 32.144531 27.917968 13.992188 3.128906 28.417969 4.714844 42.875 4.714844s28.882812-1.585938 42.875-4.710938c14.765625-3.300781 26.78125-13.738281 32.144531-27.921874 5.382813-14.25 3.257813-30.105469-5.6875-42.421876zm15.4375 83.859375c-1.804687 4.769531-5.675781 8.140625-10.625 9.246093-23.699219 5.296876-48.964843 5.296876-72.664062 0-4.949219-1.105468-8.820313-4.476562-10.625-9.246093-1.828125-4.839844-1.136719-10.007813 1.898437-14.183594l25.695313-35.367187c12.730469 2.378906 25.996093 2.378906 38.726562 0l25.695313 35.363281c3.035156 4.179687 3.726562 9.347656 1.898437 14.1875zm0 0"/><path fill="#EAEAEA" d="m424.675781 355.886719c7.300781-12.34375 13.265625-25.574219 17.730469-39.320313 4.46875-13.746094 7.417969-27.957031 8.769531-42.230468 1.421875-15.066407-4.789062-29.71875-16.621093-39.199219-11.890626-9.523438-27.628907-12.40625-42.105469-7.699219l-61.179688 19.878906-.277343 10.597656c-.1875 7.207032-1.417969 14.359376-3.664063 21.261719-2.242187 6.902344-5.449219 13.417969-9.53125 19.355469l-6.007813 8.734375 37.8125 52.046875c8.523438 11.730469 22.019532 18.570312 36.433594 18.570312.714844 0 1.4375-.019531 2.15625-.054687 15.144532-.714844 28.785156-8.917969 36.484375-21.941406zm-25.824219-15.269531c-2.578124 4.363281-6.980468 7.003906-12.078124 7.246093-5.191407.238281-9.871094-2.011719-12.902344-6.183593l-25.695313-35.371094c3.097657-5.6875 5.671875-11.660156 7.6875-17.859375s3.445313-12.546875 4.28125-18.972657l41.574219-13.507812c4.914062-1.59375 10.039062-.652344 14.078125 2.578125 3.980469 3.191406 5.988281 7.917969 5.511719 12.964844-1.144532 12.085937-3.644532 24.128906-7.429688 35.785156-3.789062 11.65625-8.847656 22.867187-15.027344 33.320313zm0 0"/><path fill="#EAEAEA" d="m300.082031 195.324219c5.875 4.265625 11.078125 9.328125 15.464844 15.046875l6.449219 8.414062 61.183594-19.878906c14.476562-4.703125 25.519531-16.285156 29.535156-30.976562 4-14.625.414062-30.132813-9.59375-41.484376-9.480469-10.753906-20.222656-20.515624-31.914063-29.011718-11.695312-8.496094-24.296875-15.691406-37.457031-21.386719-13.886719-6.011719-29.742188-4.632813-42.417969 3.691406-12.730469 8.363281-20.332031 22.445313-20.332031 37.664063v64.328125l9.996094 3.539062c6.792968 2.40625 13.214844 5.789063 19.085937 10.054688zm.917969-77.921875c0-5.160156 2.480469-9.75 6.800781-12.589844 4.265625-2.800781 9.382813-3.25 14.035157-1.238281 11.144531 4.824219 21.820312 10.921875 31.734374 18.128906 9.917969 7.207031 19.019532 15.476563 27.046876 24.582031 3.355468 3.804688 4.507812 8.808594 3.160156 13.730469-1.363282 4.988281-4.960938 8.761719-9.871094 10.355469l-41.574219 13.511718c-4.453125-4.703124-9.34375-9-14.613281-12.832031-5.273438-3.828125-10.867188-7.152343-16.71875-9.933593zm0 0"/><path fill="#EAEAEA" d="m128.820312 198.90625 61.183594 19.875 6.449219-8.410156c4.386719-5.71875 9.589844-10.78125 15.464844-15.046875 5.871093-4.269531 12.292969-7.648438 19.085937-10.054688l9.996094-3.539062v-64.328125c0-15.222656-7.601562-29.300782-20.332031-37.664063-12.675781-8.324219-28.53125-9.707031-42.421875-3.695312-13.15625 5.695312-25.757813 12.894531-37.449219 21.390625-11.695313 8.496094-22.4375 18.257812-31.917969 29.011718-10.007812 11.351563-13.59375 26.859376-9.59375 41.484376 4.019532 14.691406 15.058594 26.273437 29.535156 30.976562zm2.5625-52.621094c8.027344-9.105468 17.128907-17.375 27.046876-24.582031 9.914062-7.207031 20.59375-13.304687 31.734374-18.125 1.921876-.832031 3.917969-1.242187 5.902344-1.242187 2.828125 0 5.625.832031 8.132813 2.476562 4.320312 2.839844 6.800781 7.429688 6.800781 12.589844v43.71875c-5.851562 2.777344-11.445312 6.101562-16.71875 9.933594-5.269531 3.832031-10.160156 8.125-14.613281 12.828124l-41.574219-13.507812c-4.910156-1.59375-8.507812-5.371094-9.871094-10.359375-1.347656-4.921875-.195312-9.925781 3.160156-13.730469zm0 0"/><path fill="#EAEAEA" d="m194.203125 298.53125c-4.082031-5.9375-7.289063-12.453125-9.53125-19.355469-2.242187-6.902343-3.476563-14.054687-3.664063-21.261719l-.277343-10.601562-61.179688-19.878906c-14.476562-4.703125-30.214843-1.824219-42.105469 7.699218-11.832031 9.480469-18.042968 24.136719-16.621093 39.203126 1.351562 14.273437 4.300781 28.484374 8.769531 42.230468 4.464844 13.746094 10.433594 26.976563 17.730469 39.316406 7.699219 13.027344 21.339843 21.230469 36.488281 21.945313.71875.035156 1.4375.050781 2.152344.050781 14.414062 0 27.910156-6.839844 36.433594-18.570312l37.8125-52.042969zm-56.074219 43.144531c-3.03125 4.175781-7.722656 6.429688-12.902344 6.1875-5.09375-.242187-9.5-2.882812-12.078124-7.246093-6.179688-10.453126-11.234376-21.664063-15.023438-33.320313-3.785156-11.65625-6.289062-23.695313-7.429688-35.785156-.480468-5.046875 1.53125-9.773438 5.511719-12.964844 2.746094-2.199219 6-3.335937 9.347657-3.335937 1.566406 0 3.160156.25 4.726562.757812l41.578125 13.511719c.835937 6.421875 2.269531 12.769531 4.28125 18.96875 2.015625 6.199219 4.585937 12.175781 7.6875 17.863281zm0 0"/></svg>