<?xml version="1.0" encoding="iso-8859-1"?>
<!-- Generator: Adobe Illustrator 19.0.0, SVG Export Plug-In . SVG Version: 6.00 Build 0)  -->
<svg version="1.1" id="Capa_1" xmlns="http://www.w3.org/2000/svg" xmlns:xlink="http://www.w3.org/1999/xlink" x="0px" y="0px"
	 viewBox="0 0 420.012 420.012" style="enable-background:new 0 0 420.012 420.012;" xml:space="preserve">
<g id="XMLID_8_">
	<path fill="#EAEAEA" id="XMLID_243_" d="M0,40v340.012h420.012V40H0z M390,350H30.012V70.012H390V350z"/>
	<path fill="#EAEAEA" id="XMLID_307_" d="M159.182,284.979l50.824-26.72l50.824,26.72l-9.707-56.593l41.119-40.08l-56.824-8.256l-25.412-51.491
		l-25.412,51.491l-56.824,8.256l41.119,40.08L159.182,284.979z M210.006,196.347l5.49,11.123l12.275,1.783l-8.882,8.658
		l2.097,12.226l-10.979-5.772l-10.979,5.772l2.097-12.226l-8.882-8.658l12.275-1.783L210.006,196.347z"/>
	<rect fill="#EAEAEA" id="XMLID_311_" x="320.006" y="105.006" width="40" height="30"/>
	<rect fill="#EAEAEA" id="XMLID_312_" x="320.006" y="165.006" width="40" height="30"/>
	<rect fill="#EAEAEA" id="XMLID_333_" x="320.006" y="225.006" width="40" height="30"/>
	<rect fill="#EAEAEA" id="XMLID_334_" x="320.006" y="285.006" width="40" height="30"/>
	<rect fill="#EAEAEA" id="XMLID_337_" x="60.006" y="105.006" width="40" height="30"/>
	<rect fill="#EAEAEA" id="XMLID_338_" x="60.006" y="165.006" width="40" height="30"/>
	<rect fill="#EAEAEA" id="XMLID_340_" x="60.006" y="225.006" width="40" height="30"/>
	<rect fill="#EAEAEA" id="XMLID_341_" x="60.006" y="285.006" width="40" height="30"/>
</g>
<g>
</g>
<g>
</g>
<g>
</g>
<g>
</g>
<g>
</g>
<g>
</g>
<g>
</g>
<g>
</g>
<g>
</g>
<g>
</g>
<g>
</g>
<g>
</g>
<g>
</g>
<g>
</g>
<g>
</g>
</svg>
