<svg width="50" height="50" viewBox="0 0 50 50" fill="none" xmlns="http://www.w3.org/2000/svg">
<path d="M42.1875 37.8698V42.1875C42.1875 42.6019 42.0229 42.9993 41.7299 43.2924C41.4368 43.5854 41.0394 43.75 40.625 43.75H7.8125C7.3981 43.75 7.00067 43.5854 6.70765 43.2924C6.41462 42.9993 6.25 42.6019 6.25 42.1875V37.8698C6.27182 37.4147 6.41933 36.9745 6.67615 36.5981C6.93298 36.2217 7.28908 35.9239 7.70492 35.7376L15.73 31.5109C16.3688 32.8293 17.3638 33.9425 18.6024 34.7248C19.8409 35.5071 21.2737 35.9272 22.7386 35.9375H25.6989C27.1638 35.9272 28.5965 35.5071 29.8351 34.7248C31.0736 33.9424 32.0685 32.8291 32.7072 31.5107L40.7326 35.7376C41.1484 35.9239 41.5045 36.2217 41.7613 36.5981C42.0182 36.9745 42.1657 37.4147 42.1875 37.8698V37.8698ZM15.07 22.0715C15.4762 23.0417 16.1977 23.8465 17.118 24.3558L18.1583 29.1242C18.3863 30.1692 18.9649 31.1049 19.7979 31.7758C20.631 32.4467 21.6685 32.8125 22.7381 32.8125H25.6994C26.769 32.8125 27.8065 32.4467 28.6395 31.7758C29.4726 31.1049 30.0511 30.1693 30.2791 29.1243L31.3195 24.3559C32.2397 23.8466 32.9613 23.0417 33.3675 22.0715L33.805 20.8974C33.9271 20.6547 33.9984 20.3896 34.0143 20.1183C34.0302 19.8471 33.9904 19.5755 33.8975 19.3202C33.8045 19.0649 33.6603 18.8313 33.4737 18.6338C33.2871 18.4363 33.0621 18.279 32.8125 18.1717V14.0625C32.8125 9.375 29.6875 6.25 24.2188 6.25C18.75 6.25 15.625 9.375 15.625 14.0625V18.1717C15.3754 18.279 15.1504 18.4363 14.9638 18.6338C14.7772 18.8313 14.633 19.0648 14.5401 19.3201C14.4471 19.5754 14.4074 19.847 14.4233 20.1183C14.4392 20.3895 14.5104 20.6546 14.6325 20.8973L15.07 22.0715Z" fill="#B5B5B5"/>
</svg>
